{
  "title": "Insurgent.2015.HDCAM-HQMic.XVID.AC3.HQ.Hive-CM8",
  "uid": 11813611,
  "size": 1618250598,
  "categoryP": "video",
  "categoryS": "movies",
  "magnet": "?xt=urn:btih:c106ce69e3d8965a91e3672414a6ed4e31106c95&amp;dn=Insurgent.2015.HDCAM-HQMic.XVID.AC3.HQ.Hive-CM8&amp;tr=udp%3A%2F%2Ftracker.openbittorrent.com%3A80&amp;tr=udp%3A%2F%2Fopen.demonii.com%3A1337&amp;tr=udp%3A%2F%2Ftracker.coppersurfer.tk%3A6969&amp;tr=udp%3A%2F%2Fexodus.desync.com%3A6969",
  "seeders": 1472,
  "leechers": 406,
  "uploader": "xxxlavalxxx",
  "files": 4,
  "time": 1428992239,
  "description": "[img]http://extraimago.com/images/2015/03/29/INSURGENT-Final-Poster.jpg[/img]\n &lt;a href=&quot;\nhttp://www.imdb.com/title/tt2908446/&quot; rel=&quot;nofollow&quot; target=&quot;_NEW&quot;&gt;\nhttp://www.imdb.com/title/tt2908446/&lt;/a&gt;\n\n\nBeatrice Prior must confront her inner demons and continue her fight against a powerful alliance which threatens to tear her society apart with the help from others on her side.\n\nDirector: Robert Schwentke\nWriters: Brian Duffield (screenplay), Akiva Goldsman (screenplay)\nStars: Shailene Woodley, Ansel Elgort, Theo James\nGenres: Adventure | Sci-Fi | Thriller\nCountry: USA\nLanguage: English\n\n\nInsurgent.2015.HD-HQMic.XVID.AC3.HQ.Hive-CM8\n\nThx Hive\n\nCM8 Doing It Right The First Time\n\nSources:\n\nVideo: Italian HD-Cam-Free\nAudio: HQMic\nthx m8Ò‘s\n\nNotes:\n\ntried to get a line for this great movie, but 2 weeks have past and nothing, looks like its not coming\nthe cam audio thats already out isnt even bearable. voices werent understandable, and helicopter noise, first 20mins unwatchable...\n\nfinally got a nice HQMic for this movie, all is clear and understandable, no noises, action and effects are good too.\n\nwhat can you expect from this release is a nice video quality like on fast 7 and audio is even better than on my kingsman release(no phone is ringing-lol)\nits def a good watch till a vod or retail comes out\n\nVideoEncode:\n\nVideo was already very nice, the usual flicker which i mostly removed - around 90% i would say\ncouldnt do it completely or video woulda get hurt in the process.\nadded brightness,sharpness,contrast,smoother,noise filters and added saturation cause it was kinda pale and lowered red colourtone to get a normal skintone \nno one likes jaundice people lol :wink:\ndid around 5 different videos, this is the best of them.\nDaylight scenes are more than bright enough, darker scenes are good to watch now too.\n\nAudioEncode:\n\nI played a lot with it, besides the usual cleaning process i played with EQ to get the best out of it,all is fine now\nafterwards i synced the audio to my video, ofc everything is lipsync, as usual\n\nits not gonna get better than this, unless a line pops up, which i doubt\nenjoy\n\n\nVideo: 720x352 @bitrate 1700 2pass\nAudio: English HQ Mic Stereo @256\nSample: yes included\n\n\nPS: there are so many good sources out, but i need good audio for them, \n      if you have a good mic audio or even line stereo for the following movies,dont hesitate to contact me \n      movies i need audio for are: CHAPPIE,JUPITER ASCENDING;CINDERELLA and LAZARUS Effect\n      thx\n\n\n\n &lt;a href=&quot;\nhttp://www.imdb.com/title/tt2908446/&quot; rel=&quot;nofollow&quot; target=&quot;_NEW&quot;&gt;\nhttp://www.imdb.com/title/tt2908446/&lt;/a&gt;\n\n\nGeneral\nComplete name                            : Insurgent.2015.HD-HQMic.XVID.AC3.HQ.Hive-CM8.avi\nFormat                                   : AVI\nFormat/Info                              : Audio Video Interleave\nFile size                                : 1.48 GiB\nDuration                                 : 1h 47mn\nOverall bit rate                         : 1 969 Kbps\nWriting application                      : Nandub v1.0rc2\nWriting library                          : Nandub build 1853/release\n\nVideo\nID                                       : 0\nFormat                                   : MPEG-4 Visual\nFormat profile                           : Advanced Simple@L5\nFormat settings, BVOP                    : 2\nFormat settings, QPel                    : Yes\nFormat settings, GMC                     : No warppoints\nFormat settings, Matrix                  : Default (H.263)\nMuxing mode                              : Packed bitstream\nCodec ID                                 : XVID\nCodec ID/Hint                            : XviD\nDuration                                 : 1h 47mn\nBit rate                                 : 1 701 Kbps\nWidth                                    : 720 pixels\nHeight                                   : 352 pixels\nDisplay aspect ratio                     : 2.045\nFrame rate                               : 30.000 fps\nColor space                              : YUV\nChroma subsampling                       : 4:2:0\nBit depth                                : 8 bits\nScan type                                : Progressive\nCompression mode                         : Lossy\nBits/(Pixel*Frame)                       : 0.224\nStream size                              : 1.28 GiB (86%)\nWriting library                          : XviD 1.2.1 (UTC 2008-12-04)\n\nAudio\nID                                       : 1\nFormat                                   : AC-3\nFormat/Info                              : Audio Coding 3\nMode extension                           : CM (complete main)\nFormat settings, Endianness              : Big\nCodec ID                                 : 2000\nDuration                                 : 1h 47mn\nBit rate mode                            : Constant\nBit rate                                 : 256 Kbps\nChannel(s)                               : 2 channels\nChannel positions                        : Front: L R\nSampling rate                            : 48.0 KHz\nBit depth                                : 16 bits\nCompression mode                         : Lossy\nStream size                              : 198 MiB (13%)\nAlignment                                : Split accross interleaves\nInterleave, duration                     : 33 ms (1.00 video frame)\nInterleave, preload duration             : 500 ms\n &lt;a href=&quot;\nhttp://extraimago.com/image/wIR&quot; rel=&quot;nofollow&quot; target=&quot;_NEW&quot;&gt;\nhttp://extraimago.com/image/wIR&lt;/a&gt; &lt;a href=&quot;\nhttp://extraimago.com/image/wIm&quot; rel=&quot;nofollow&quot; target=&quot;_NEW&quot;&gt;\nhttp://extraimago.com/image/wIm&lt;/a&gt; &lt;a href=&quot;\nhttp://extraimago.com/image/wIi&quot; rel=&quot;nofollow&quot; target=&quot;_NEW&quot;&gt;\nhttp://extraimago.com/image/wIi&lt;/a&gt; &lt;a href=&quot;\nhttp://extraimago.com/image/wIl&quot; rel=&quot;nofollow&quot; target=&quot;_NEW&quot;&gt;\nhttp://extraimago.com/image/wIl&lt;/a&gt; &lt;a href=&quot;\nhttp://extraimago.com/image/wII&quot; rel=&quot;nofollow&quot; target=&quot;_NEW&quot;&gt;\nhttp://extraimago.com/image/wII&lt;/a&gt; &lt;a href=&quot;\nhttp://extraimago.com/image/wId&quot; rel=&quot;nofollow&quot; target=&quot;_NEW&quot;&gt;\nhttp://extraimago.com/image/wId&lt;/a&gt; &lt;a href=&quot;\nhttp://extraimago.com/image/wIh&quot; rel=&quot;nofollow&quot; target=&quot;_NEW&quot;&gt;\nhttp://extraimago.com/image/wIh&lt;/a&gt; &lt;a href=&quot;\nhttp://extraimago.com/image/wIb&quot; rel=&quot;nofollow&quot; target=&quot;_NEW&quot;&gt;\nhttp://extraimago.com/image/wIb&lt;/a&gt;",
  "parsed": {
    "xt": "urn:btih:c106ce69e3d8965a91e3672414a6ed4e31106c95",
    "dn": "Insurgent.2015.HDCAM-HQMic.XVID.AC3.HQ.Hive-CM8",
    "tr": [
      "udp://exodus.desync.com:6969",
      "udp://open.demonii.com:1337",
      "udp://tracker.coppersurfer.tk:6969",
      "udp://tracker.openbittorrent.com:80"
    ],
    "infoHash": "c106ce69e3d8965a91e3672414a6ed4e31106c95",
    "infoHashBuffer": {
      "type": "Buffer",
      "data": [
        193,
        6,
        206,
        105,
        227,
        216,
        150,
        90,
        145,
        227,
        103,
        36,
        20,
        166,
        237,
        78,
        49,
        16,
        108,
        149
      ]
    },
    "name": "Insurgent.2015.HDCAM-HQMic.XVID.AC3.HQ.Hive-CM8",
    "announce": [
      "udp://exodus.desync.com:6969",
      "udp://open.demonii.com:1337",
      "udp://tracker.coppersurfer.tk:6969",
      "udp://tracker.openbittorrent.com:80"
    ],
    "urlList": []
  },
  "previous": 126,
  "peers": 29,
  "last_updated": "2016-12-27T12:05:42.000Z"
}